<?xml version="1.0" encoding="UTF-8"?>
<svg width="212px" height="212px" viewBox="0 0 212 212" version="1.1" xmlns="http://www.w3.org/2000/svg" xmlns:xlink="http://www.w3.org/1999/xlink">
    <!-- Generator: Sketch 52.3 (67297) - http://www.bohemiancoding.com/sketch -->
    <title>data-center</title>
    <desc>Created with Sketch.</desc>
    <g id="Page-1" stroke="none" stroke-width="1" fill="none" fill-rule="evenodd">
        <g id="data-center" fill="#007297">
            <polygon id="Path" points="123 27 130 27 130 34 123 34"></polygon>
            <polygon id="Path" points="109 27 116 27 116 34 109 34"></polygon>
            <polygon id="Path" points="82 55 89 55 89 62 82 62"></polygon>
            <polygon id="Path" points="96 55 103 55 103 62 96 62"></polygon>
            <polygon id="Path" points="123 82 130 82 130 89 123 89"></polygon>
            <polygon id="Path" points="109 82 116 82 116 89 109 89"></polygon>
            <polygon id="Path" points="82 109 89 109 89 116 82 116"></polygon>
            <polygon id="Path" points="96 109 103 109 103 116 96 116"></polygon>
            <polygon id="Path" points="27 55 34 55 34 62 27 62"></polygon>
            <polygon id="Path" points="41 55 48 55 48 62 41 62"></polygon>
            <polygon id="Path" points="27 109 34 109 34 116 27 116"></polygon>
            <polygon id="Path" points="41 109 48 109 48 116 41 116"></polygon>
            <path d="M194.903226,27.3548387 L157.290323,27.3548387 L157.290323,17.0967742 C157.290323,7.6696129 149.62071,0 140.193548,0 L71.8064516,0 C62.3792903,0 54.7096774,7.6696129 54.7096774,17.0967742 L54.7096774,27.3548387 L17.0967742,27.3548387 C7.6696129,27.3548387 0,35.0244516 0,44.4516129 L0,140.193548 C0,149.62071 7.6696129,157.290323 17.0967742,157.290323 L45.1389032,157.290323 C45.1286452,157.334774 45.1252258,157.382645 45.1183871,157.430516 C31.3212903,158.815355 20.516129,170.492452 20.516129,184.645161 C20.516129,199.727935 32.7881935,212 47.8709677,212 L164.129032,212 C179.211806,212 191.483871,199.727935 191.483871,184.645161 C191.483871,170.718129 181.013806,159.212 167.538129,157.526258 C167.538129,157.447613 167.548387,157.368968 167.548387,157.290323 L194.903226,157.290323 C204.330387,157.290323 212,149.62071 212,140.193548 L212,44.4516129 C212,35.0244516 204.330387,27.3548387 194.903226,27.3548387 Z M191.483871,95.7419355 L157.290323,95.7419355 L157.290323,75.2258065 L191.483871,75.2258065 L191.483871,95.7419355 Z M191.483871,102.580645 L191.483871,123.096774 L157.290323,123.096774 L157.290323,102.580645 L191.483871,102.580645 Z M191.483871,68.3870968 L157.290323,68.3870968 L157.290323,47.8709677 L191.483871,47.8709677 L191.483871,68.3870968 Z M71.8064516,6.83870968 L140.193548,6.83870968 C145.849161,6.83870968 150.451613,11.4411613 150.451613,17.0967742 L150.451613,124.030258 C148.314516,122.488129 146.030387,121.151161 143.612903,120.036452 L143.612903,20.516129 C143.612903,16.7445806 140.545742,13.6774194 136.774194,13.6774194 L75.2258065,13.6774194 C71.4542581,13.6774194 68.3870968,16.7445806 68.3870968,20.516129 L68.3870968,131.525484 C65.9832903,132.277742 63.6957419,133.289871 61.5483871,134.527677 L61.5483871,17.0967742 C61.5483871,11.4411613 66.1508387,6.83870968 71.8064516,6.83870968 Z M93.2970968,133.300129 C88.7356774,131.132258 83.7468387,129.935484 78.6451613,129.935484 C77.4928387,129.935484 76.3507742,130.000452 75.2258065,130.11329 L75.2258065,102.580645 L136.774194,102.580645 L136.774194,117.60871 C133.488194,116.75729 130.065419,116.258065 126.516129,116.258065 C112.852387,116.258065 100.758129,122.997613 93.2970968,133.300129 Z M136.774194,41.0322581 L75.2258065,41.0322581 L75.2258065,20.516129 L136.774194,20.516129 L136.774194,41.0322581 Z M75.2258065,47.8709677 L136.774194,47.8709677 L136.774194,68.3870968 L75.2258065,68.3870968 L75.2258065,47.8709677 Z M75.2258065,75.2258065 L136.774194,75.2258065 L136.774194,95.7419355 L75.2258065,95.7419355 L75.2258065,75.2258065 Z M54.7096774,68.3870968 L20.516129,68.3870968 L20.516129,47.8709677 L54.7096774,47.8709677 L54.7096774,68.3870968 Z M20.516129,75.2258065 L54.7096774,75.2258065 L54.7096774,95.7419355 L20.516129,95.7419355 L20.516129,75.2258065 Z M20.516129,102.580645 L54.7096774,102.580645 L54.7096774,123.096774 L20.516129,123.096774 L20.516129,102.580645 Z M6.83870968,140.193548 L6.83870968,44.4516129 C6.83870968,38.796 11.4411613,34.1935484 17.0967742,34.1935484 L54.7096774,34.1935484 L54.7096774,41.0322581 L20.516129,41.0322581 C16.7445806,41.0322581 13.6774194,44.0994194 13.6774194,47.8709677 L13.6774194,149.822452 C9.70754839,148.406839 6.83870968,144.645548 6.83870968,140.193548 Z M20.516129,150.451613 L20.516129,129.935484 L54.7096774,129.935484 L54.7096774,139.725097 C51.6083226,142.764903 49.078,146.389419 47.3067742,150.451613 L20.516129,150.451613 Z M184.645161,184.645161 C184.645161,195.959806 175.443677,205.16129 164.129032,205.16129 L47.8709677,205.16129 C36.5563226,205.16129 27.3548387,195.959806 27.3548387,184.645161 C27.3548387,173.330516 36.5563226,164.129032 47.8709677,164.129032 C59.1856129,164.129032 68.3870968,173.330516 68.3870968,184.645161 L75.2258065,184.645161 C75.2258065,170.998516 65.1694839,159.68729 52.0870323,157.649355 C55.0105806,145.541419 65.8601935,136.774194 78.6451613,136.774194 C82.4987742,136.774194 86.2805806,137.605097 89.7649032,139.157484 C87.0499355,144.631871 85.483871,150.776452 85.483871,157.290323 L92.3225806,157.290323 C92.3225806,138.436 107.661806,123.096774 126.516129,123.096774 C145.370452,123.096774 160.709677,138.436 160.709677,157.290323 C160.709677,157.368968 160.699419,157.447613 160.699419,157.529677 C147.234,159.225677 136.774194,170.724968 136.774194,184.645161 L143.612903,184.645161 C143.612903,173.330516 152.814387,164.129032 164.129032,164.129032 C175.443677,164.129032 184.645161,173.330516 184.645161,184.645161 Z M166.929484,150.451613 C165.633548,142.782 162.217613,135.84071 157.290323,130.239806 L157.290323,129.935484 L191.483871,129.935484 L191.483871,150.451613 L166.929484,150.451613 Z M205.16129,140.193548 C205.16129,144.645548 202.292452,148.406839 198.322581,149.822452 L198.322581,47.8709677 C198.322581,44.0994194 195.255419,41.0322581 191.483871,41.0322581 L157.290323,41.0322581 L157.290323,34.1935484 L194.903226,34.1935484 C200.558839,34.1935484 205.16129,38.796 205.16129,44.4516129 L205.16129,140.193548 Z" id="Shape" fill-rule="nonzero"></path>
            <polygon id="Path" points="178 55 185 55 185 62 178 62"></polygon>
            <polygon id="Path" points="164 55 171 55 171 62 164 62"></polygon>
            <polygon id="Path" points="178 109 185 109 185 116 178 116"></polygon>
            <polygon id="Path" points="164 109 171 109 171 116 164 116"></polygon>
            <path d="M147.20788,154 L154,153.049006 C152.082427,139.906469 140.405469,130 126.838381,130 C124.176419,130 121.538469,130.373005 119,131.112293 L120.955307,137.557547 C122.859159,137.00308 124.838479,136.720806 126.838381,136.720806 C137.01627,136.720806 145.773988,144.147298 147.20788,154 Z" id="Path"></path>
            <polygon id="Path" points="48 191 55 191 55 198 48 198"></polygon>
            <polygon id="Path" points="61 191 68 191 68 198 61 198"></polygon>
            <polygon id="Path" points="75 191 82 191 82 198 75 198"></polygon>
        </g>
    </g>
</svg>